<mxfile host="Electron" modified="2024-02-26T16:23:42.015Z" agent="Mozilla/5.0 (X11; Linux x86_64) AppleWebKit/537.36 (KHTML, like Gecko) draw.io/23.1.5 Chrome/120.0.6099.109 Electron/28.1.0 Safari/537.36" etag="64a1p31Ahkv-p4p_BPly" version="23.1.5" type="device">
  <diagram id="C5RBs43oDa-KdzZeNtuy" name="Page-1">
    <mxGraphModel dx="476" dy="883" grid="1" gridSize="10" guides="1" tooltips="1" connect="1" arrows="1" fold="1" page="1" pageScale="1" pageWidth="827" pageHeight="1169" math="0" shadow="0">
      <root>
        <mxCell id="WIyWlLk6GJQsqaUBKTNV-0" />
        <mxCell id="WIyWlLk6GJQsqaUBKTNV-1" parent="WIyWlLk6GJQsqaUBKTNV-0" />
        <mxCell id="eIwMA6RZp4UQQGY7Jjtt-0" value="FactoriaCarreraYBicicleta" style="swimlane;fontStyle=0;childLayout=stackLayout;horizontal=1;startSize=26;fillColor=none;horizontalStack=0;resizeParent=1;resizeParentMax=0;resizeLast=0;collapsible=1;marginBottom=0;whiteSpace=wrap;html=1;" vertex="1" parent="WIyWlLk6GJQsqaUBKTNV-1">
          <mxGeometry x="258" y="830" width="180" height="100" as="geometry" />
        </mxCell>
        <mxCell id="eIwMA6RZp4UQQGY7Jjtt-1" value="+ crearCarrera(): Carrera" style="text;strokeColor=none;fillColor=none;align=left;verticalAlign=top;spacingLeft=4;spacingRight=4;overflow=hidden;rotatable=0;points=[[0,0.5],[1,0.5]];portConstraint=eastwest;whiteSpace=wrap;html=1;" vertex="1" parent="eIwMA6RZp4UQQGY7Jjtt-0">
          <mxGeometry y="26" width="180" height="26" as="geometry" />
        </mxCell>
        <mxCell id="eIwMA6RZp4UQQGY7Jjtt-2" value="+ crearBicicleta(): Bicicleta" style="text;strokeColor=none;fillColor=none;align=left;verticalAlign=top;spacingLeft=4;spacingRight=4;overflow=hidden;rotatable=0;points=[[0,0.5],[1,0.5]];portConstraint=eastwest;whiteSpace=wrap;html=1;" vertex="1" parent="eIwMA6RZp4UQQGY7Jjtt-0">
          <mxGeometry y="52" width="180" height="48" as="geometry" />
        </mxCell>
        <mxCell id="eIwMA6RZp4UQQGY7Jjtt-4" value="Carrera&lt;div&gt;&lt;br/&gt;&lt;/div&gt;" style="swimlane;fontStyle=1;align=center;verticalAlign=top;childLayout=stackLayout;horizontal=1;startSize=26;horizontalStack=0;resizeParent=1;resizeParentMax=0;resizeLast=0;collapsible=1;marginBottom=0;whiteSpace=wrap;html=1;" vertex="1" parent="WIyWlLk6GJQsqaUBKTNV-1">
          <mxGeometry x="128" y="202" width="160" height="86" as="geometry" />
        </mxCell>
        <mxCell id="eIwMA6RZp4UQQGY7Jjtt-5" value="+ lista: ArrayList&amp;lt;Bicicleta&amp;gt;" style="text;strokeColor=none;fillColor=none;align=left;verticalAlign=top;spacingLeft=4;spacingRight=4;overflow=hidden;rotatable=0;points=[[0,0.5],[1,0.5]];portConstraint=eastwest;whiteSpace=wrap;html=1;" vertex="1" parent="eIwMA6RZp4UQQGY7Jjtt-4">
          <mxGeometry y="26" width="160" height="26" as="geometry" />
        </mxCell>
        <mxCell id="eIwMA6RZp4UQQGY7Jjtt-6" value="" style="line;strokeWidth=1;fillColor=none;align=left;verticalAlign=middle;spacingTop=-1;spacingLeft=3;spacingRight=3;rotatable=0;labelPosition=right;points=[];portConstraint=eastwest;strokeColor=inherit;" vertex="1" parent="eIwMA6RZp4UQQGY7Jjtt-4">
          <mxGeometry y="52" width="160" height="8" as="geometry" />
        </mxCell>
        <mxCell id="eIwMA6RZp4UQQGY7Jjtt-7" value="+ method(type): type" style="text;strokeColor=none;fillColor=none;align=left;verticalAlign=top;spacingLeft=4;spacingRight=4;overflow=hidden;rotatable=0;points=[[0,0.5],[1,0.5]];portConstraint=eastwest;whiteSpace=wrap;html=1;" vertex="1" parent="eIwMA6RZp4UQQGY7Jjtt-4">
          <mxGeometry y="60" width="160" height="26" as="geometry" />
        </mxCell>
        <mxCell id="eIwMA6RZp4UQQGY7Jjtt-8" value="Bicicleta&lt;div&gt;&lt;br/&gt;&lt;/div&gt;" style="swimlane;fontStyle=1;align=center;verticalAlign=top;childLayout=stackLayout;horizontal=1;startSize=26;horizontalStack=0;resizeParent=1;resizeParentMax=0;resizeLast=0;collapsible=1;marginBottom=0;whiteSpace=wrap;html=1;" vertex="1" parent="WIyWlLk6GJQsqaUBKTNV-1">
          <mxGeometry x="568" y="192" width="160" height="86" as="geometry" />
        </mxCell>
        <mxCell id="eIwMA6RZp4UQQGY7Jjtt-9" value="- id: int" style="text;strokeColor=none;fillColor=none;align=left;verticalAlign=top;spacingLeft=4;spacingRight=4;overflow=hidden;rotatable=0;points=[[0,0.5],[1,0.5]];portConstraint=eastwest;whiteSpace=wrap;html=1;" vertex="1" parent="eIwMA6RZp4UQQGY7Jjtt-8">
          <mxGeometry y="26" width="160" height="26" as="geometry" />
        </mxCell>
        <mxCell id="eIwMA6RZp4UQQGY7Jjtt-10" value="" style="line;strokeWidth=1;fillColor=none;align=left;verticalAlign=middle;spacingTop=-1;spacingLeft=3;spacingRight=3;rotatable=0;labelPosition=right;points=[];portConstraint=eastwest;strokeColor=inherit;" vertex="1" parent="eIwMA6RZp4UQQGY7Jjtt-8">
          <mxGeometry y="52" width="160" height="8" as="geometry" />
        </mxCell>
        <mxCell id="eIwMA6RZp4UQQGY7Jjtt-11" value="+ method(type): type" style="text;strokeColor=none;fillColor=none;align=left;verticalAlign=top;spacingLeft=4;spacingRight=4;overflow=hidden;rotatable=0;points=[[0,0.5],[1,0.5]];portConstraint=eastwest;whiteSpace=wrap;html=1;" vertex="1" parent="eIwMA6RZp4UQQGY7Jjtt-8">
          <mxGeometry y="60" width="160" height="26" as="geometry" />
        </mxCell>
        <mxCell id="eIwMA6RZp4UQQGY7Jjtt-12" value="FactoriaMontana" style="swimlane;fontStyle=0;childLayout=stackLayout;horizontal=1;startSize=26;fillColor=none;horizontalStack=0;resizeParent=1;resizeParentMax=0;resizeLast=0;collapsible=1;marginBottom=0;whiteSpace=wrap;html=1;" vertex="1" parent="WIyWlLk6GJQsqaUBKTNV-1">
          <mxGeometry x="28" y="710" width="180" height="100" as="geometry" />
        </mxCell>
        <mxCell id="eIwMA6RZp4UQQGY7Jjtt-13" value="+ crearCarrera(): Carrera" style="text;strokeColor=none;fillColor=none;align=left;verticalAlign=top;spacingLeft=4;spacingRight=4;overflow=hidden;rotatable=0;points=[[0,0.5],[1,0.5]];portConstraint=eastwest;whiteSpace=wrap;html=1;" vertex="1" parent="eIwMA6RZp4UQQGY7Jjtt-12">
          <mxGeometry y="26" width="180" height="26" as="geometry" />
        </mxCell>
        <mxCell id="eIwMA6RZp4UQQGY7Jjtt-14" value="+ crearBicicleta(): Bicicleta" style="text;strokeColor=none;fillColor=none;align=left;verticalAlign=top;spacingLeft=4;spacingRight=4;overflow=hidden;rotatable=0;points=[[0,0.5],[1,0.5]];portConstraint=eastwest;whiteSpace=wrap;html=1;" vertex="1" parent="eIwMA6RZp4UQQGY7Jjtt-12">
          <mxGeometry y="52" width="180" height="48" as="geometry" />
        </mxCell>
        <mxCell id="eIwMA6RZp4UQQGY7Jjtt-15" value="FactoriaCarretera" style="swimlane;fontStyle=0;childLayout=stackLayout;horizontal=1;startSize=26;fillColor=none;horizontalStack=0;resizeParent=1;resizeParentMax=0;resizeLast=0;collapsible=1;marginBottom=0;whiteSpace=wrap;html=1;" vertex="1" parent="WIyWlLk6GJQsqaUBKTNV-1">
          <mxGeometry x="458" y="700" width="180" height="100" as="geometry" />
        </mxCell>
        <mxCell id="eIwMA6RZp4UQQGY7Jjtt-16" value="+ crearCarrera(): Carrera" style="text;strokeColor=none;fillColor=none;align=left;verticalAlign=top;spacingLeft=4;spacingRight=4;overflow=hidden;rotatable=0;points=[[0,0.5],[1,0.5]];portConstraint=eastwest;whiteSpace=wrap;html=1;" vertex="1" parent="eIwMA6RZp4UQQGY7Jjtt-15">
          <mxGeometry y="26" width="180" height="26" as="geometry" />
        </mxCell>
        <mxCell id="eIwMA6RZp4UQQGY7Jjtt-17" value="+ crearBicicleta(): Bicicleta" style="text;strokeColor=none;fillColor=none;align=left;verticalAlign=top;spacingLeft=4;spacingRight=4;overflow=hidden;rotatable=0;points=[[0,0.5],[1,0.5]];portConstraint=eastwest;whiteSpace=wrap;html=1;" vertex="1" parent="eIwMA6RZp4UQQGY7Jjtt-15">
          <mxGeometry y="52" width="180" height="48" as="geometry" />
        </mxCell>
        <mxCell id="eIwMA6RZp4UQQGY7Jjtt-20" style="edgeStyle=orthogonalEdgeStyle;rounded=0;orthogonalLoop=1;jettySize=auto;html=1;entryX=-0.016;entryY=0.03;entryDx=0;entryDy=0;entryPerimeter=0;" edge="1" parent="WIyWlLk6GJQsqaUBKTNV-1" source="eIwMA6RZp4UQQGY7Jjtt-12" target="eIwMA6RZp4UQQGY7Jjtt-2">
          <mxGeometry relative="1" as="geometry" />
        </mxCell>
        <mxCell id="eIwMA6RZp4UQQGY7Jjtt-21" style="edgeStyle=orthogonalEdgeStyle;rounded=0;orthogonalLoop=1;jettySize=auto;html=1;entryX=0.986;entryY=0.049;entryDx=0;entryDy=0;entryPerimeter=0;" edge="1" parent="WIyWlLk6GJQsqaUBKTNV-1" source="eIwMA6RZp4UQQGY7Jjtt-15" target="eIwMA6RZp4UQQGY7Jjtt-2">
          <mxGeometry relative="1" as="geometry" />
        </mxCell>
        <mxCell id="eIwMA6RZp4UQQGY7Jjtt-30" style="edgeStyle=orthogonalEdgeStyle;rounded=0;orthogonalLoop=1;jettySize=auto;html=1;" edge="1" parent="WIyWlLk6GJQsqaUBKTNV-1" source="eIwMA6RZp4UQQGY7Jjtt-22" target="eIwMA6RZp4UQQGY7Jjtt-7">
          <mxGeometry relative="1" as="geometry" />
        </mxCell>
        <mxCell id="eIwMA6RZp4UQQGY7Jjtt-22" value="CarreraMontana" style="swimlane;fontStyle=1;align=center;verticalAlign=top;childLayout=stackLayout;horizontal=1;startSize=26;horizontalStack=0;resizeParent=1;resizeParentMax=0;resizeLast=0;collapsible=1;marginBottom=0;whiteSpace=wrap;html=1;" vertex="1" parent="WIyWlLk6GJQsqaUBKTNV-1">
          <mxGeometry x="28" y="339" width="160" height="86" as="geometry" />
        </mxCell>
        <mxCell id="eIwMA6RZp4UQQGY7Jjtt-23" value="+ lista: ArrayList&amp;lt;Bicicleta&amp;gt;" style="text;strokeColor=none;fillColor=none;align=left;verticalAlign=top;spacingLeft=4;spacingRight=4;overflow=hidden;rotatable=0;points=[[0,0.5],[1,0.5]];portConstraint=eastwest;whiteSpace=wrap;html=1;" vertex="1" parent="eIwMA6RZp4UQQGY7Jjtt-22">
          <mxGeometry y="26" width="160" height="26" as="geometry" />
        </mxCell>
        <mxCell id="eIwMA6RZp4UQQGY7Jjtt-24" value="" style="line;strokeWidth=1;fillColor=none;align=left;verticalAlign=middle;spacingTop=-1;spacingLeft=3;spacingRight=3;rotatable=0;labelPosition=right;points=[];portConstraint=eastwest;strokeColor=inherit;" vertex="1" parent="eIwMA6RZp4UQQGY7Jjtt-22">
          <mxGeometry y="52" width="160" height="8" as="geometry" />
        </mxCell>
        <mxCell id="eIwMA6RZp4UQQGY7Jjtt-25" value="+ method(type): type" style="text;strokeColor=none;fillColor=none;align=left;verticalAlign=top;spacingLeft=4;spacingRight=4;overflow=hidden;rotatable=0;points=[[0,0.5],[1,0.5]];portConstraint=eastwest;whiteSpace=wrap;html=1;" vertex="1" parent="eIwMA6RZp4UQQGY7Jjtt-22">
          <mxGeometry y="60" width="160" height="26" as="geometry" />
        </mxCell>
        <mxCell id="eIwMA6RZp4UQQGY7Jjtt-26" value="CarreraCarretera" style="swimlane;fontStyle=1;align=center;verticalAlign=top;childLayout=stackLayout;horizontal=1;startSize=26;horizontalStack=0;resizeParent=1;resizeParentMax=0;resizeLast=0;collapsible=1;marginBottom=0;whiteSpace=wrap;html=1;" vertex="1" parent="WIyWlLk6GJQsqaUBKTNV-1">
          <mxGeometry x="228" y="342" width="160" height="86" as="geometry" />
        </mxCell>
        <mxCell id="eIwMA6RZp4UQQGY7Jjtt-27" value="+ lista: ArrayList&amp;lt;Bicicleta&amp;gt;" style="text;strokeColor=none;fillColor=none;align=left;verticalAlign=top;spacingLeft=4;spacingRight=4;overflow=hidden;rotatable=0;points=[[0,0.5],[1,0.5]];portConstraint=eastwest;whiteSpace=wrap;html=1;" vertex="1" parent="eIwMA6RZp4UQQGY7Jjtt-26">
          <mxGeometry y="26" width="160" height="26" as="geometry" />
        </mxCell>
        <mxCell id="eIwMA6RZp4UQQGY7Jjtt-28" value="" style="line;strokeWidth=1;fillColor=none;align=left;verticalAlign=middle;spacingTop=-1;spacingLeft=3;spacingRight=3;rotatable=0;labelPosition=right;points=[];portConstraint=eastwest;strokeColor=inherit;" vertex="1" parent="eIwMA6RZp4UQQGY7Jjtt-26">
          <mxGeometry y="52" width="160" height="8" as="geometry" />
        </mxCell>
        <mxCell id="eIwMA6RZp4UQQGY7Jjtt-29" value="+ method(type): type" style="text;strokeColor=none;fillColor=none;align=left;verticalAlign=top;spacingLeft=4;spacingRight=4;overflow=hidden;rotatable=0;points=[[0,0.5],[1,0.5]];portConstraint=eastwest;whiteSpace=wrap;html=1;" vertex="1" parent="eIwMA6RZp4UQQGY7Jjtt-26">
          <mxGeometry y="60" width="160" height="26" as="geometry" />
        </mxCell>
        <mxCell id="eIwMA6RZp4UQQGY7Jjtt-31" style="edgeStyle=orthogonalEdgeStyle;rounded=0;orthogonalLoop=1;jettySize=auto;html=1;entryX=0.947;entryY=-0.194;entryDx=0;entryDy=0;entryPerimeter=0;" edge="1" parent="WIyWlLk6GJQsqaUBKTNV-1" source="eIwMA6RZp4UQQGY7Jjtt-26" target="eIwMA6RZp4UQQGY7Jjtt-7">
          <mxGeometry relative="1" as="geometry" />
        </mxCell>
        <mxCell id="eIwMA6RZp4UQQGY7Jjtt-41" style="edgeStyle=orthogonalEdgeStyle;rounded=0;orthogonalLoop=1;jettySize=auto;html=1;entryX=1;entryY=0.5;entryDx=0;entryDy=0;" edge="1" parent="WIyWlLk6GJQsqaUBKTNV-1" source="eIwMA6RZp4UQQGY7Jjtt-32" target="eIwMA6RZp4UQQGY7Jjtt-9">
          <mxGeometry relative="1" as="geometry" />
        </mxCell>
        <mxCell id="eIwMA6RZp4UQQGY7Jjtt-32" value="BicicletaCarretera" style="swimlane;fontStyle=1;align=center;verticalAlign=top;childLayout=stackLayout;horizontal=1;startSize=26;horizontalStack=0;resizeParent=1;resizeParentMax=0;resizeLast=0;collapsible=1;marginBottom=0;whiteSpace=wrap;html=1;" vertex="1" parent="WIyWlLk6GJQsqaUBKTNV-1">
          <mxGeometry x="668" y="342" width="160" height="86" as="geometry" />
        </mxCell>
        <mxCell id="eIwMA6RZp4UQQGY7Jjtt-33" value="- id: int" style="text;strokeColor=none;fillColor=none;align=left;verticalAlign=top;spacingLeft=4;spacingRight=4;overflow=hidden;rotatable=0;points=[[0,0.5],[1,0.5]];portConstraint=eastwest;whiteSpace=wrap;html=1;" vertex="1" parent="eIwMA6RZp4UQQGY7Jjtt-32">
          <mxGeometry y="26" width="160" height="26" as="geometry" />
        </mxCell>
        <mxCell id="eIwMA6RZp4UQQGY7Jjtt-34" value="" style="line;strokeWidth=1;fillColor=none;align=left;verticalAlign=middle;spacingTop=-1;spacingLeft=3;spacingRight=3;rotatable=0;labelPosition=right;points=[];portConstraint=eastwest;strokeColor=inherit;" vertex="1" parent="eIwMA6RZp4UQQGY7Jjtt-32">
          <mxGeometry y="52" width="160" height="8" as="geometry" />
        </mxCell>
        <mxCell id="eIwMA6RZp4UQQGY7Jjtt-35" value="+ method(type): type" style="text;strokeColor=none;fillColor=none;align=left;verticalAlign=top;spacingLeft=4;spacingRight=4;overflow=hidden;rotatable=0;points=[[0,0.5],[1,0.5]];portConstraint=eastwest;whiteSpace=wrap;html=1;" vertex="1" parent="eIwMA6RZp4UQQGY7Jjtt-32">
          <mxGeometry y="60" width="160" height="26" as="geometry" />
        </mxCell>
        <mxCell id="eIwMA6RZp4UQQGY7Jjtt-40" style="edgeStyle=orthogonalEdgeStyle;rounded=0;orthogonalLoop=1;jettySize=auto;html=1;" edge="1" parent="WIyWlLk6GJQsqaUBKTNV-1" source="eIwMA6RZp4UQQGY7Jjtt-36" target="eIwMA6RZp4UQQGY7Jjtt-9">
          <mxGeometry relative="1" as="geometry" />
        </mxCell>
        <mxCell id="eIwMA6RZp4UQQGY7Jjtt-36" value="BicicletaMontana" style="swimlane;fontStyle=1;align=center;verticalAlign=top;childLayout=stackLayout;horizontal=1;startSize=26;horizontalStack=0;resizeParent=1;resizeParentMax=0;resizeLast=0;collapsible=1;marginBottom=0;whiteSpace=wrap;html=1;" vertex="1" parent="WIyWlLk6GJQsqaUBKTNV-1">
          <mxGeometry x="458" y="342" width="160" height="86" as="geometry" />
        </mxCell>
        <mxCell id="eIwMA6RZp4UQQGY7Jjtt-37" value="- id: int" style="text;strokeColor=none;fillColor=none;align=left;verticalAlign=top;spacingLeft=4;spacingRight=4;overflow=hidden;rotatable=0;points=[[0,0.5],[1,0.5]];portConstraint=eastwest;whiteSpace=wrap;html=1;" vertex="1" parent="eIwMA6RZp4UQQGY7Jjtt-36">
          <mxGeometry y="26" width="160" height="26" as="geometry" />
        </mxCell>
        <mxCell id="eIwMA6RZp4UQQGY7Jjtt-38" value="" style="line;strokeWidth=1;fillColor=none;align=left;verticalAlign=middle;spacingTop=-1;spacingLeft=3;spacingRight=3;rotatable=0;labelPosition=right;points=[];portConstraint=eastwest;strokeColor=inherit;" vertex="1" parent="eIwMA6RZp4UQQGY7Jjtt-36">
          <mxGeometry y="52" width="160" height="8" as="geometry" />
        </mxCell>
        <mxCell id="eIwMA6RZp4UQQGY7Jjtt-39" value="+ method(type): type" style="text;strokeColor=none;fillColor=none;align=left;verticalAlign=top;spacingLeft=4;spacingRight=4;overflow=hidden;rotatable=0;points=[[0,0.5],[1,0.5]];portConstraint=eastwest;whiteSpace=wrap;html=1;" vertex="1" parent="eIwMA6RZp4UQQGY7Jjtt-36">
          <mxGeometry y="60" width="160" height="26" as="geometry" />
        </mxCell>
        <mxCell id="eIwMA6RZp4UQQGY7Jjtt-43" value="&amp;lt;&amp;lt;interface&amp;gt;&amp;gt;" style="text;align=center;fontStyle=1;verticalAlign=middle;spacingLeft=3;spacingRight=3;strokeColor=none;rotatable=0;points=[[0,0.5],[1,0.5]];portConstraint=eastwest;html=1;" vertex="1" parent="WIyWlLk6GJQsqaUBKTNV-1">
          <mxGeometry x="298" y="800" width="80" height="26" as="geometry" />
        </mxCell>
        <mxCell id="eIwMA6RZp4UQQGY7Jjtt-44" value="&amp;lt;&amp;lt;abstract&amp;gt;&amp;gt;" style="text;align=center;fontStyle=1;verticalAlign=middle;spacingLeft=3;spacingRight=3;strokeColor=none;rotatable=0;points=[[0,0.5],[1,0.5]];portConstraint=eastwest;html=1;" vertex="1" parent="WIyWlLk6GJQsqaUBKTNV-1">
          <mxGeometry x="588" y="166" width="80" height="26" as="geometry" />
        </mxCell>
        <mxCell id="eIwMA6RZp4UQQGY7Jjtt-45" value="&amp;lt;&amp;lt;abstract&amp;gt;&amp;gt;" style="text;align=center;fontStyle=1;verticalAlign=middle;spacingLeft=3;spacingRight=3;strokeColor=none;rotatable=0;points=[[0,0.5],[1,0.5]];portConstraint=eastwest;html=1;" vertex="1" parent="WIyWlLk6GJQsqaUBKTNV-1">
          <mxGeometry x="158" y="176" width="80" height="26" as="geometry" />
        </mxCell>
        <mxCell id="eIwMA6RZp4UQQGY7Jjtt-48" value="&lt;h1&gt;Factoria Abstracta&lt;/h1&gt;&lt;p&gt;&lt;br&gt;&lt;/p&gt;" style="text;html=1;spacing=5;spacingTop=-20;whiteSpace=wrap;overflow=hidden;rounded=0;" vertex="1" parent="WIyWlLk6GJQsqaUBKTNV-1">
          <mxGeometry x="317" y="46" width="323" height="64" as="geometry" />
        </mxCell>
        <mxCell id="eIwMA6RZp4UQQGY7Jjtt-49" value="FactoriaCarreraYBicicleta" style="swimlane;fontStyle=0;childLayout=stackLayout;horizontal=1;startSize=26;fillColor=none;horizontalStack=0;resizeParent=1;resizeParentMax=0;resizeLast=0;collapsible=1;marginBottom=0;whiteSpace=wrap;html=1;" vertex="1" parent="WIyWlLk6GJQsqaUBKTNV-1">
          <mxGeometry x="1090" y="680" width="210" height="100" as="geometry" />
        </mxCell>
        <mxCell id="eIwMA6RZp4UQQGY7Jjtt-50" value="+ crearCarrera(tipo: string): Carrera" style="text;strokeColor=none;fillColor=none;align=left;verticalAlign=top;spacingLeft=4;spacingRight=4;overflow=hidden;rotatable=0;points=[[0,0.5],[1,0.5]];portConstraint=eastwest;whiteSpace=wrap;html=1;" vertex="1" parent="eIwMA6RZp4UQQGY7Jjtt-49">
          <mxGeometry y="26" width="210" height="26" as="geometry" />
        </mxCell>
        <mxCell id="eIwMA6RZp4UQQGY7Jjtt-51" value="+ crearBicicleta(tipo: string): Bicicleta" style="text;strokeColor=none;fillColor=none;align=left;verticalAlign=top;spacingLeft=4;spacingRight=4;overflow=hidden;rotatable=0;points=[[0,0.5],[1,0.5]];portConstraint=eastwest;whiteSpace=wrap;html=1;" vertex="1" parent="eIwMA6RZp4UQQGY7Jjtt-49">
          <mxGeometry y="52" width="210" height="48" as="geometry" />
        </mxCell>
        <mxCell id="eIwMA6RZp4UQQGY7Jjtt-52" value="Carrera&lt;div&gt;&lt;br/&gt;&lt;/div&gt;" style="swimlane;fontStyle=1;align=center;verticalAlign=top;childLayout=stackLayout;horizontal=1;startSize=26;horizontalStack=0;resizeParent=1;resizeParentMax=0;resizeLast=0;collapsible=1;marginBottom=0;whiteSpace=wrap;html=1;" vertex="1" parent="WIyWlLk6GJQsqaUBKTNV-1">
          <mxGeometry x="1040" y="380" width="160" height="86" as="geometry" />
        </mxCell>
        <mxCell id="eIwMA6RZp4UQQGY7Jjtt-53" value="+ lista: ArrayList&amp;lt;Bicicleta&amp;gt;" style="text;strokeColor=none;fillColor=none;align=left;verticalAlign=top;spacingLeft=4;spacingRight=4;overflow=hidden;rotatable=0;points=[[0,0.5],[1,0.5]];portConstraint=eastwest;whiteSpace=wrap;html=1;" vertex="1" parent="eIwMA6RZp4UQQGY7Jjtt-52">
          <mxGeometry y="26" width="160" height="26" as="geometry" />
        </mxCell>
        <mxCell id="eIwMA6RZp4UQQGY7Jjtt-54" value="" style="line;strokeWidth=1;fillColor=none;align=left;verticalAlign=middle;spacingTop=-1;spacingLeft=3;spacingRight=3;rotatable=0;labelPosition=right;points=[];portConstraint=eastwest;strokeColor=inherit;" vertex="1" parent="eIwMA6RZp4UQQGY7Jjtt-52">
          <mxGeometry y="52" width="160" height="8" as="geometry" />
        </mxCell>
        <mxCell id="eIwMA6RZp4UQQGY7Jjtt-55" value="+ method(type): type" style="text;strokeColor=none;fillColor=none;align=left;verticalAlign=top;spacingLeft=4;spacingRight=4;overflow=hidden;rotatable=0;points=[[0,0.5],[1,0.5]];portConstraint=eastwest;whiteSpace=wrap;html=1;" vertex="1" parent="eIwMA6RZp4UQQGY7Jjtt-52">
          <mxGeometry y="60" width="160" height="26" as="geometry" />
        </mxCell>
        <mxCell id="eIwMA6RZp4UQQGY7Jjtt-56" value="Bicicleta&lt;div&gt;&lt;br/&gt;&lt;/div&gt;" style="swimlane;fontStyle=1;align=center;verticalAlign=top;childLayout=stackLayout;horizontal=1;startSize=26;horizontalStack=0;resizeParent=1;resizeParentMax=0;resizeLast=0;collapsible=1;marginBottom=0;whiteSpace=wrap;html=1;" vertex="1" parent="WIyWlLk6GJQsqaUBKTNV-1">
          <mxGeometry x="1270" y="380" width="160" height="86" as="geometry" />
        </mxCell>
        <mxCell id="eIwMA6RZp4UQQGY7Jjtt-57" value="- id: int" style="text;strokeColor=none;fillColor=none;align=left;verticalAlign=top;spacingLeft=4;spacingRight=4;overflow=hidden;rotatable=0;points=[[0,0.5],[1,0.5]];portConstraint=eastwest;whiteSpace=wrap;html=1;" vertex="1" parent="eIwMA6RZp4UQQGY7Jjtt-56">
          <mxGeometry y="26" width="160" height="26" as="geometry" />
        </mxCell>
        <mxCell id="eIwMA6RZp4UQQGY7Jjtt-58" value="" style="line;strokeWidth=1;fillColor=none;align=left;verticalAlign=middle;spacingTop=-1;spacingLeft=3;spacingRight=3;rotatable=0;labelPosition=right;points=[];portConstraint=eastwest;strokeColor=inherit;" vertex="1" parent="eIwMA6RZp4UQQGY7Jjtt-56">
          <mxGeometry y="52" width="160" height="8" as="geometry" />
        </mxCell>
        <mxCell id="eIwMA6RZp4UQQGY7Jjtt-59" value="+ method(type): type" style="text;strokeColor=none;fillColor=none;align=left;verticalAlign=top;spacingLeft=4;spacingRight=4;overflow=hidden;rotatable=0;points=[[0,0.5],[1,0.5]];portConstraint=eastwest;whiteSpace=wrap;html=1;" vertex="1" parent="eIwMA6RZp4UQQGY7Jjtt-56">
          <mxGeometry y="60" width="160" height="26" as="geometry" />
        </mxCell>
        <mxCell id="eIwMA6RZp4UQQGY7Jjtt-68" style="edgeStyle=orthogonalEdgeStyle;rounded=0;orthogonalLoop=1;jettySize=auto;html=1;" edge="1" parent="WIyWlLk6GJQsqaUBKTNV-1" source="eIwMA6RZp4UQQGY7Jjtt-69" target="eIwMA6RZp4UQQGY7Jjtt-55">
          <mxGeometry relative="1" as="geometry" />
        </mxCell>
        <mxCell id="eIwMA6RZp4UQQGY7Jjtt-69" value="CarreraMontana" style="swimlane;fontStyle=1;align=center;verticalAlign=top;childLayout=stackLayout;horizontal=1;startSize=26;horizontalStack=0;resizeParent=1;resizeParentMax=0;resizeLast=0;collapsible=1;marginBottom=0;whiteSpace=wrap;html=1;" vertex="1" parent="WIyWlLk6GJQsqaUBKTNV-1">
          <mxGeometry x="880" y="542" width="160" height="86" as="geometry" />
        </mxCell>
        <mxCell id="eIwMA6RZp4UQQGY7Jjtt-70" value="+ lista: ArrayList&amp;lt;Bicicleta&amp;gt;" style="text;strokeColor=none;fillColor=none;align=left;verticalAlign=top;spacingLeft=4;spacingRight=4;overflow=hidden;rotatable=0;points=[[0,0.5],[1,0.5]];portConstraint=eastwest;whiteSpace=wrap;html=1;" vertex="1" parent="eIwMA6RZp4UQQGY7Jjtt-69">
          <mxGeometry y="26" width="160" height="26" as="geometry" />
        </mxCell>
        <mxCell id="eIwMA6RZp4UQQGY7Jjtt-71" value="" style="line;strokeWidth=1;fillColor=none;align=left;verticalAlign=middle;spacingTop=-1;spacingLeft=3;spacingRight=3;rotatable=0;labelPosition=right;points=[];portConstraint=eastwest;strokeColor=inherit;" vertex="1" parent="eIwMA6RZp4UQQGY7Jjtt-69">
          <mxGeometry y="52" width="160" height="8" as="geometry" />
        </mxCell>
        <mxCell id="eIwMA6RZp4UQQGY7Jjtt-72" value="+ method(type): type" style="text;strokeColor=none;fillColor=none;align=left;verticalAlign=top;spacingLeft=4;spacingRight=4;overflow=hidden;rotatable=0;points=[[0,0.5],[1,0.5]];portConstraint=eastwest;whiteSpace=wrap;html=1;" vertex="1" parent="eIwMA6RZp4UQQGY7Jjtt-69">
          <mxGeometry y="60" width="160" height="26" as="geometry" />
        </mxCell>
        <mxCell id="eIwMA6RZp4UQQGY7Jjtt-73" value="CarreraCarretera" style="swimlane;fontStyle=1;align=center;verticalAlign=top;childLayout=stackLayout;horizontal=1;startSize=26;horizontalStack=0;resizeParent=1;resizeParentMax=0;resizeLast=0;collapsible=1;marginBottom=0;whiteSpace=wrap;html=1;" vertex="1" parent="WIyWlLk6GJQsqaUBKTNV-1">
          <mxGeometry x="870" y="294" width="160" height="86" as="geometry" />
        </mxCell>
        <mxCell id="eIwMA6RZp4UQQGY7Jjtt-74" value="+ lista: ArrayList&amp;lt;Bicicleta&amp;gt;" style="text;strokeColor=none;fillColor=none;align=left;verticalAlign=top;spacingLeft=4;spacingRight=4;overflow=hidden;rotatable=0;points=[[0,0.5],[1,0.5]];portConstraint=eastwest;whiteSpace=wrap;html=1;" vertex="1" parent="eIwMA6RZp4UQQGY7Jjtt-73">
          <mxGeometry y="26" width="160" height="26" as="geometry" />
        </mxCell>
        <mxCell id="eIwMA6RZp4UQQGY7Jjtt-75" value="" style="line;strokeWidth=1;fillColor=none;align=left;verticalAlign=middle;spacingTop=-1;spacingLeft=3;spacingRight=3;rotatable=0;labelPosition=right;points=[];portConstraint=eastwest;strokeColor=inherit;" vertex="1" parent="eIwMA6RZp4UQQGY7Jjtt-73">
          <mxGeometry y="52" width="160" height="8" as="geometry" />
        </mxCell>
        <mxCell id="eIwMA6RZp4UQQGY7Jjtt-76" value="+ method(type): type" style="text;strokeColor=none;fillColor=none;align=left;verticalAlign=top;spacingLeft=4;spacingRight=4;overflow=hidden;rotatable=0;points=[[0,0.5],[1,0.5]];portConstraint=eastwest;whiteSpace=wrap;html=1;" vertex="1" parent="eIwMA6RZp4UQQGY7Jjtt-73">
          <mxGeometry y="60" width="160" height="26" as="geometry" />
        </mxCell>
        <mxCell id="eIwMA6RZp4UQQGY7Jjtt-77" style="edgeStyle=orthogonalEdgeStyle;rounded=0;orthogonalLoop=1;jettySize=auto;html=1;entryX=0;entryY=0.5;entryDx=0;entryDy=0;" edge="1" parent="WIyWlLk6GJQsqaUBKTNV-1" source="eIwMA6RZp4UQQGY7Jjtt-73" target="eIwMA6RZp4UQQGY7Jjtt-53">
          <mxGeometry relative="1" as="geometry" />
        </mxCell>
        <mxCell id="eIwMA6RZp4UQQGY7Jjtt-78" style="edgeStyle=orthogonalEdgeStyle;rounded=0;orthogonalLoop=1;jettySize=auto;html=1;entryX=1;entryY=0.5;entryDx=0;entryDy=0;" edge="1" parent="WIyWlLk6GJQsqaUBKTNV-1" source="eIwMA6RZp4UQQGY7Jjtt-79" target="eIwMA6RZp4UQQGY7Jjtt-57">
          <mxGeometry relative="1" as="geometry" />
        </mxCell>
        <mxCell id="eIwMA6RZp4UQQGY7Jjtt-79" value="BicicletaCarretera" style="swimlane;fontStyle=1;align=center;verticalAlign=top;childLayout=stackLayout;horizontal=1;startSize=26;horizontalStack=0;resizeParent=1;resizeParentMax=0;resizeLast=0;collapsible=1;marginBottom=0;whiteSpace=wrap;html=1;" vertex="1" parent="WIyWlLk6GJQsqaUBKTNV-1">
          <mxGeometry x="1440" y="520" width="160" height="86" as="geometry" />
        </mxCell>
        <mxCell id="eIwMA6RZp4UQQGY7Jjtt-80" value="- id: int" style="text;strokeColor=none;fillColor=none;align=left;verticalAlign=top;spacingLeft=4;spacingRight=4;overflow=hidden;rotatable=0;points=[[0,0.5],[1,0.5]];portConstraint=eastwest;whiteSpace=wrap;html=1;" vertex="1" parent="eIwMA6RZp4UQQGY7Jjtt-79">
          <mxGeometry y="26" width="160" height="26" as="geometry" />
        </mxCell>
        <mxCell id="eIwMA6RZp4UQQGY7Jjtt-81" value="" style="line;strokeWidth=1;fillColor=none;align=left;verticalAlign=middle;spacingTop=-1;spacingLeft=3;spacingRight=3;rotatable=0;labelPosition=right;points=[];portConstraint=eastwest;strokeColor=inherit;" vertex="1" parent="eIwMA6RZp4UQQGY7Jjtt-79">
          <mxGeometry y="52" width="160" height="8" as="geometry" />
        </mxCell>
        <mxCell id="eIwMA6RZp4UQQGY7Jjtt-82" value="+ method(type): type" style="text;strokeColor=none;fillColor=none;align=left;verticalAlign=top;spacingLeft=4;spacingRight=4;overflow=hidden;rotatable=0;points=[[0,0.5],[1,0.5]];portConstraint=eastwest;whiteSpace=wrap;html=1;" vertex="1" parent="eIwMA6RZp4UQQGY7Jjtt-79">
          <mxGeometry y="60" width="160" height="26" as="geometry" />
        </mxCell>
        <mxCell id="eIwMA6RZp4UQQGY7Jjtt-83" style="edgeStyle=orthogonalEdgeStyle;rounded=0;orthogonalLoop=1;jettySize=auto;html=1;entryX=0.943;entryY=-0.117;entryDx=0;entryDy=0;entryPerimeter=0;" edge="1" parent="WIyWlLk6GJQsqaUBKTNV-1" target="eIwMA6RZp4UQQGY7Jjtt-57">
          <mxGeometry relative="1" as="geometry">
            <mxPoint x="1535.947368421053" y="366" as="sourcePoint" />
            <mxPoint x="1446" y="419.0000000000002" as="targetPoint" />
          </mxGeometry>
        </mxCell>
        <mxCell id="eIwMA6RZp4UQQGY7Jjtt-84" value="BicicletaMontana" style="swimlane;fontStyle=1;align=center;verticalAlign=top;childLayout=stackLayout;horizontal=1;startSize=26;horizontalStack=0;resizeParent=1;resizeParentMax=0;resizeLast=0;collapsible=1;marginBottom=0;whiteSpace=wrap;html=1;" vertex="1" parent="WIyWlLk6GJQsqaUBKTNV-1">
          <mxGeometry x="1440" y="280" width="160" height="86" as="geometry" />
        </mxCell>
        <mxCell id="eIwMA6RZp4UQQGY7Jjtt-85" value="- id: int" style="text;strokeColor=none;fillColor=none;align=left;verticalAlign=top;spacingLeft=4;spacingRight=4;overflow=hidden;rotatable=0;points=[[0,0.5],[1,0.5]];portConstraint=eastwest;whiteSpace=wrap;html=1;" vertex="1" parent="eIwMA6RZp4UQQGY7Jjtt-84">
          <mxGeometry y="26" width="160" height="26" as="geometry" />
        </mxCell>
        <mxCell id="eIwMA6RZp4UQQGY7Jjtt-86" value="" style="line;strokeWidth=1;fillColor=none;align=left;verticalAlign=middle;spacingTop=-1;spacingLeft=3;spacingRight=3;rotatable=0;labelPosition=right;points=[];portConstraint=eastwest;strokeColor=inherit;" vertex="1" parent="eIwMA6RZp4UQQGY7Jjtt-84">
          <mxGeometry y="52" width="160" height="8" as="geometry" />
        </mxCell>
        <mxCell id="eIwMA6RZp4UQQGY7Jjtt-87" value="+ method(type): type" style="text;strokeColor=none;fillColor=none;align=left;verticalAlign=top;spacingLeft=4;spacingRight=4;overflow=hidden;rotatable=0;points=[[0,0.5],[1,0.5]];portConstraint=eastwest;whiteSpace=wrap;html=1;" vertex="1" parent="eIwMA6RZp4UQQGY7Jjtt-84">
          <mxGeometry y="60" width="160" height="26" as="geometry" />
        </mxCell>
        <mxCell id="eIwMA6RZp4UQQGY7Jjtt-89" value="&amp;lt;&amp;lt;abstract&amp;gt;&amp;gt;" style="text;align=center;fontStyle=1;verticalAlign=middle;spacingLeft=3;spacingRight=3;strokeColor=none;rotatable=0;points=[[0,0.5],[1,0.5]];portConstraint=eastwest;html=1;" vertex="1" parent="WIyWlLk6GJQsqaUBKTNV-1">
          <mxGeometry x="1300" y="342" width="80" height="26" as="geometry" />
        </mxCell>
        <mxCell id="eIwMA6RZp4UQQGY7Jjtt-90" value="&amp;lt;&amp;lt;abstract&amp;gt;&amp;gt;" style="text;align=center;fontStyle=1;verticalAlign=middle;spacingLeft=3;spacingRight=3;strokeColor=none;rotatable=0;points=[[0,0.5],[1,0.5]];portConstraint=eastwest;html=1;" vertex="1" parent="WIyWlLk6GJQsqaUBKTNV-1">
          <mxGeometry x="1090" y="339" width="80" height="26" as="geometry" />
        </mxCell>
        <mxCell id="eIwMA6RZp4UQQGY7Jjtt-91" value="&lt;h1&gt;Factoria Metodo&lt;/h1&gt;" style="text;html=1;spacing=5;spacingTop=-20;whiteSpace=wrap;overflow=hidden;rounded=0;" vertex="1" parent="WIyWlLk6GJQsqaUBKTNV-1">
          <mxGeometry x="1129" y="120" width="261" height="80" as="geometry" />
        </mxCell>
        <mxCell id="eIwMA6RZp4UQQGY7Jjtt-94" value="USE" style="html=1;verticalAlign=bottom;endArrow=open;dashed=1;endSize=8;curved=0;rounded=0;" edge="1" parent="WIyWlLk6GJQsqaUBKTNV-1" target="eIwMA6RZp4UQQGY7Jjtt-25">
          <mxGeometry relative="1" as="geometry">
            <mxPoint x="120" y="700" as="sourcePoint" />
            <mxPoint x="140" y="630" as="targetPoint" />
          </mxGeometry>
        </mxCell>
        <mxCell id="eIwMA6RZp4UQQGY7Jjtt-95" value="USE" style="html=1;verticalAlign=bottom;endArrow=open;dashed=1;endSize=8;curved=0;rounded=0;entryX=0.595;entryY=1.025;entryDx=0;entryDy=0;entryPerimeter=0;" edge="1" parent="WIyWlLk6GJQsqaUBKTNV-1" target="eIwMA6RZp4UQQGY7Jjtt-39">
          <mxGeometry relative="1" as="geometry">
            <mxPoint x="130" y="710" as="sourcePoint" />
            <mxPoint x="119" y="435" as="targetPoint" />
          </mxGeometry>
        </mxCell>
        <mxCell id="eIwMA6RZp4UQQGY7Jjtt-96" value="USE" style="html=1;verticalAlign=bottom;endArrow=open;dashed=1;endSize=8;curved=0;rounded=0;entryX=0.398;entryY=0.926;entryDx=0;entryDy=0;entryPerimeter=0;exitX=0.292;exitY=0.014;exitDx=0;exitDy=0;exitPerimeter=0;" edge="1" parent="WIyWlLk6GJQsqaUBKTNV-1" source="eIwMA6RZp4UQQGY7Jjtt-15" target="eIwMA6RZp4UQQGY7Jjtt-29">
          <mxGeometry relative="1" as="geometry">
            <mxPoint x="140" y="720" as="sourcePoint" />
            <mxPoint x="129" y="445" as="targetPoint" />
          </mxGeometry>
        </mxCell>
        <mxCell id="eIwMA6RZp4UQQGY7Jjtt-97" value="USE" style="html=1;verticalAlign=bottom;endArrow=open;dashed=1;endSize=8;curved=0;rounded=0;entryX=0.568;entryY=1.051;entryDx=0;entryDy=0;entryPerimeter=0;exitX=0.75;exitY=0;exitDx=0;exitDy=0;" edge="1" parent="WIyWlLk6GJQsqaUBKTNV-1" source="eIwMA6RZp4UQQGY7Jjtt-15" target="eIwMA6RZp4UQQGY7Jjtt-35">
          <mxGeometry relative="1" as="geometry">
            <mxPoint x="150" y="730" as="sourcePoint" />
            <mxPoint x="139" y="455" as="targetPoint" />
          </mxGeometry>
        </mxCell>
        <mxCell id="eIwMA6RZp4UQQGY7Jjtt-98" value="USE" style="html=1;verticalAlign=bottom;endArrow=open;dashed=1;endSize=8;curved=0;rounded=0;exitX=0.067;exitY=0;exitDx=0;exitDy=0;exitPerimeter=0;" edge="1" parent="WIyWlLk6GJQsqaUBKTNV-1" source="eIwMA6RZp4UQQGY7Jjtt-0" target="eIwMA6RZp4UQQGY7Jjtt-7">
          <mxGeometry relative="1" as="geometry">
            <mxPoint x="160" y="740" as="sourcePoint" />
            <mxPoint x="149" y="465" as="targetPoint" />
          </mxGeometry>
        </mxCell>
        <mxCell id="eIwMA6RZp4UQQGY7Jjtt-99" value="USE" style="html=1;verticalAlign=bottom;endArrow=open;dashed=1;endSize=8;curved=0;rounded=0;exitX=0.865;exitY=0.002;exitDx=0;exitDy=0;exitPerimeter=0;" edge="1" parent="WIyWlLk6GJQsqaUBKTNV-1" source="eIwMA6RZp4UQQGY7Jjtt-0" target="eIwMA6RZp4UQQGY7Jjtt-11">
          <mxGeometry relative="1" as="geometry">
            <mxPoint x="280" y="840" as="sourcePoint" />
            <mxPoint x="219" y="298" as="targetPoint" />
          </mxGeometry>
        </mxCell>
        <mxCell id="eIwMA6RZp4UQQGY7Jjtt-101" value="USE" style="html=1;verticalAlign=bottom;endArrow=open;dashed=1;endSize=8;curved=0;rounded=0;exitX=0.75;exitY=0;exitDx=0;exitDy=0;" edge="1" parent="WIyWlLk6GJQsqaUBKTNV-1" source="eIwMA6RZp4UQQGY7Jjtt-49" target="eIwMA6RZp4UQQGY7Jjtt-56">
          <mxGeometry relative="1" as="geometry">
            <mxPoint x="1205" y="690" as="sourcePoint" />
            <mxPoint x="1030" y="280" as="targetPoint" />
          </mxGeometry>
        </mxCell>
        <mxCell id="eIwMA6RZp4UQQGY7Jjtt-100" value="USE" style="html=1;verticalAlign=bottom;endArrow=open;dashed=1;endSize=8;curved=0;rounded=0;entryX=0.556;entryY=0.986;entryDx=0;entryDy=0;entryPerimeter=0;" edge="1" parent="WIyWlLk6GJQsqaUBKTNV-1" source="eIwMA6RZp4UQQGY7Jjtt-49" target="eIwMA6RZp4UQQGY7Jjtt-55">
          <mxGeometry relative="1" as="geometry">
            <mxPoint x="1081" y="812" as="sourcePoint" />
            <mxPoint x="1020" y="270" as="targetPoint" />
          </mxGeometry>
        </mxCell>
      </root>
    </mxGraphModel>
  </diagram>
</mxfile>
